<svg width="180" height="180" viewBox="0 0 180 180" fill="none" xmlns="http://www.w3.org/2000/svg">
<path d="M154.325 19.8109H26.2164C15.6035 19.8109 7 28.4143 7 39.0272V154.325C7 164.938 15.6035 173.542 26.2164 173.542H154.325C164.938 173.542 173.542 164.938 173.542 154.325V39.0272C173.542 28.4143 164.938 19.8109 154.325 19.8109Z" stroke="white" stroke-width="12.8109" stroke-linejoin="round"/>
<path d="M39.0273 7V19.8109M141.514 7V19.8109M173.542 51.8382H7" stroke="white" stroke-width="12.8109" stroke-linecap="round" stroke-linejoin="round"/>
<path d="M129.762 70.7783C127.637 71.2934 123.147 72.2255 119.8 72.8388C111.272 74.3841 109.917 74.8501 106.118 77.4502C100.725 81.1541 96.9529 88.3166 96.9794 94.8168C97.006 97.2942 97.4045 99.0603 97.8561 98.5943C97.9624 98.4716 98.3343 97.7603 98.6531 97.0244C100.274 93.4186 104.976 87.9241 108.987 84.9561C111.033 83.4353 115.151 81.939 115.151 82.724C115.151 82.9938 113.743 84.6127 112.069 86.2316C110.502 87.777 109.97 88.4147 107.021 92.3639C103.966 96.5093 99.9814 103.917 97.2982 110.515C94.6948 116.918 92.782 122.02 91.5068 125.846C89.355 132.395 87.4157 137.571 87.0703 137.669C86.6452 137.816 85.4763 134.309 83.0323 125.601C79.2333 111.963 77.6128 107.278 73.7341 98.7415C71.0775 92.9281 67.5708 88.2675 60.4511 81.1296C56.5459 77.1804 50.9936 73.4029 47.6462 72.3727C45.4678 71.6859 45.2819 72.0293 46.929 73.7218C54.6863 81.7919 59.1759 87.777 63.9312 96.2885C67.9427 103.525 70.7056 110.712 75.7266 127.195C77.0018 131.414 79.8178 142.158 80.721 146.328C81.7305 150.964 82.8463 155.502 83.1385 156.213C83.2448 156.434 83.6433 156.728 84.0418 156.826C84.945 157.047 89.3018 157.047 90.2317 156.826C91.6131 156.458 91.8788 155.453 93.7915 143.875C95.0667 136.05 96.1559 131.365 98.3343 124.374C102.027 112.453 105.959 103.721 108.35 102.298C108.695 102.102 110.395 101.709 112.175 101.44C119.082 100.385 124.635 97.5641 128.567 93.0752C131.197 90.0827 131.887 87.8751 132.551 80.5163C132.897 76.6162 133.109 75.5124 133.906 73.1822C134.411 71.6614 134.756 70.2877 134.703 70.116C134.517 69.6745 134.092 69.7236 129.762 70.7783Z" fill="white"/>
</svg>
